<?xml version="1.0" standalone="no"?>
<!DOCTYPE svg PUBLIC "-//W3C//DTD SVG 20010904//EN"
 "http://www.w3.org/TR/2001/REC-SVG-20010904/DTD/svg10.dtd">
<svg version="1.0" xmlns="http://www.w3.org/2000/svg"
 width="640.000000pt" height="640.000000pt" viewBox="0 0 640.000000 640.000000"
 preserveAspectRatio="xMidYMid meet">

<g transform="translate(0.000000,640.000000) scale(0.100000,-0.100000)"
fill="#000000" stroke="none">
<path d="M3057 5356 c-4 -9 -14 -12 -28 -9 -15 4 -20 3 -15 -5 4 -7 1 -12 -8
-12 -8 0 -20 -9 -26 -20 -11 -20 -11 -20 -38 5 -20 18 -38 25 -69 25 -51 0
-73 -8 -73 -26 0 -10 -6 -11 -24 -5 -23 9 -152 -1 -163 -13 -6 -5 37 -10 90
-9 9 0 17 -4 17 -8 0 -4 8 -10 18 -13 9 -3 -9 -3 -40 -1 -50 5 -57 3 -51 -11
5 -15 1 -16 -33 -10 -21 4 -49 10 -61 13 -17 4 -23 1 -23 -11 0 -16 -31 -27
-65 -23 -15 1 -19 -3 -18 -20 2 -15 -3 -23 -12 -23 -8 0 -15 -4 -15 -10 0 -5
5 -10 11 -10 6 0 9 -10 7 -22 -3 -20 -10 -23 -55 -26 -61 -4 -95 10 -87 36 4
12 0 10 -15 -7 -26 -28 -27 -41 -3 -42 11 0 5 -6 -15 -16 -18 -9 -33 -20 -33
-25 0 -4 -4 -8 -10 -8 -5 0 -10 7 -10 15 0 24 -17 18 -24 -8 -3 -13 -17 -29
-32 -36 -20 -9 -25 -16 -20 -35 8 -32 -13 -55 -54 -60 -49 -6 -73 -39 -65 -92
4 -30 2 -44 -10 -54 -8 -7 -15 -18 -15 -25 0 -7 -6 -18 -14 -24 -13 -11 -12
-15 5 -32 23 -23 24 -42 4 -59 -11 -9 -12 -17 -6 -23 7 -7 7 -16 0 -29 -6 -10
-9 -29 -7 -41 3 -18 13 -8 52 52 35 53 45 75 36 81 -17 10 -4 30 20 30 11 0
29 10 42 23 13 12 34 30 48 39 21 14 23 19 10 27 -8 5 -19 7 -25 4 -5 -4 -7
-2 -2 2 4 5 1 18 -7 31 -14 21 -13 22 12 27 15 3 32 2 37 -3 15 -12 126 10
157 31 23 17 90 28 75 13 -3 -4 5 -16 19 -27 20 -15 23 -22 12 -28 -9 -6 -5
-9 14 -9 15 0 38 -4 53 -10 22 -8 24 -13 15 -30 -6 -12 -7 -20 -1 -20 5 0 17
-3 27 -7 12 -4 15 -3 10 5 -10 17 21 45 44 39 13 -3 17 -1 13 10 -5 12 0 12
32 -1 21 -9 40 -14 43 -12 10 11 -11 26 -46 32 -20 4 -45 11 -54 15 -9 5 -31
11 -50 14 -56 10 -104 23 -86 24 10 1 35 10 56 21 30 16 49 19 85 14 26 -4 50
-11 53 -15 8 -13 42 -11 46 2 3 8 14 6 37 -5 18 -10 38 -15 44 -13 7 2 -3 11
-20 21 -18 9 -33 18 -33 21 0 8 79 -4 99 -15 23 -12 45 -5 35 12 -4 6 1 6 14
-1 27 -14 39 3 14 21 -11 7 -20 18 -20 23 -1 6 -10 11 -22 11 -20 2 -20 2 0
-3 17 -4 19 -7 10 -18 -8 -10 -17 -11 -28 -5 -34 18 -193 52 -217 46 -29 -7
-33 -23 -7 -29 9 -2 -2 -8 -25 -12 -26 -4 -43 -13 -43 -21 0 -8 -7 -14 -15
-14 -8 0 -15 5 -15 10 0 6 -10 8 -24 4 -38 -9 -44 16 -10 43 19 15 42 23 68
23 29 0 37 3 33 15 -5 11 -2 12 17 4 18 -9 29 -7 50 6 16 11 35 15 51 11 21
-5 25 -3 26 16 0 13 3 17 6 11 2 -7 11 -13 19 -13 9 0 13 -4 9 -9 -3 -6 20 -8
55 -7 50 3 60 1 58 -13 -2 -9 6 -17 17 -19 28 -6 45 -21 45 -41 0 -16 38 -47
47 -38 2 3 -3 22 -12 42 -19 48 -13 55 14 17 18 -26 76 -51 89 -38 7 8 -39 68
-77 103 -20 17 -33 34 -29 38 4 4 22 -8 42 -26 19 -19 41 -39 49 -46 8 -7 17
-18 20 -25 3 -9 10 -7 25 8 12 12 18 25 15 28 -11 11 -23 6 -23 -9 0 -8 -4
-15 -10 -15 -5 0 -10 7 -10 15 0 8 5 15 11 15 6 0 9 7 5 15 -8 21 0 19 38 -10
44 -33 47 -32 25 13 -29 58 -106 132 -133 130 -22 -2 -26 -28 -5 -28 5 0 9 -5
9 -11 0 -7 -7 -8 -17 -4 -10 4 -24 8 -30 8 -7 0 -13 4 -13 9 0 4 -6 8 -13 8
-7 0 -22 7 -33 15 -17 13 -16 14 19 8 46 -7 49 8 10 49 -46 48 -20 46 62 -5
11 -6 22 -15 25 -18 8 -9 73 -30 78 -25 6 7 -18 30 -45 45 -13 6 -20 17 -17
26 9 22 103 -40 119 -79 11 -26 11 -32 -1 -39 -12 -7 -13 -12 -3 -23 9 -11 8
-14 -7 -15 -17 0 -17 -1 1 -9 12 -4 26 -15 33 -23 11 -13 10 -15 -10 -10 l-23
6 20 -23 c42 -49 100 -93 80 -60 -9 14 8 13 23 -2 6 -6 14 -9 18 -5 3 3 -9 15
-27 26 -21 13 -33 28 -33 44 -2 32 25 25 56 -14 13 -16 30 -29 38 -29 18 -1
60 -34 60 -48 0 -6 6 -13 13 -15 9 -4 9 -7 -1 -14 -10 -7 -8 -13 6 -26 18 -16
19 -16 19 14 0 23 -10 39 -46 71 -25 22 -57 44 -70 49 -18 7 -21 13 -13 21 9
9 7 17 -10 35 -12 13 -18 26 -15 29 4 4 32 -18 64 -50 67 -66 83 -74 26 -13
-123 133 -183 189 -197 184 -8 -3 -34 9 -58 26 l-43 32 28 3 c20 2 38 -5 63
-28 41 -35 67 -30 33 6 -13 14 -43 30 -67 36 -24 6 -46 17 -49 24 -7 18 -19
18 -26 0z m-2 -46 c-3 -5 -11 -10 -16 -10 -6 0 -7 5 -4 10 3 6 11 10 16 10 6
0 7 -4 4 -10z m-234 -60 c9 0 19 -9 22 -21 5 -18 2 -20 -16 -15 -12 3 -40 6
-61 6 -22 0 -36 3 -32 8 4 4 13 7 19 7 7 1 11 7 9 14 -2 10 4 12 20 7 13 -3
30 -6 39 -6z m-291 -50 c8 -5 11 -10 6 -10 -5 0 -3 -7 4 -15 22 -26 3 -29 -29
-4 -16 13 -30 27 -30 32 -1 10 31 9 49 -3z m330 -20 c0 -5 -2 -10 -4 -10 -3 0
-8 5 -11 10 -3 6 -1 10 4 10 6 0 11 -4 11 -10z m-270 -70 c-6 -11 -16 -20 -21
-20 -6 0 -8 -8 -5 -17 6 -16 6 -16 -12 0 -10 9 -30 17 -44 17 -14 0 -31 7 -38
15 -11 13 -7 15 28 15 23 0 45 6 52 15 19 23 54 1 40 -25z m278 24 c12 -8 20
-20 16 -25 -3 -5 -2 -8 3 -7 15 4 53 -23 53 -38 0 -11 -6 -14 -22 -9 -40 12
-63 32 -75 64 -13 35 -8 38 25 15z m177 -14 c3 -5 2 -10 -4 -10 -5 0 -13 5
-16 10 -3 6 -2 10 4 10 5 0 13 -4 16 -10z m-565 -64 c0 -1 -5 -17 -11 -33 -9
-27 -16 -31 -62 -37 -29 -4 -67 -10 -84 -12 -19 -3 -33 0 -33 6 0 5 9 10 20
10 11 0 23 6 26 14 3 8 28 17 57 21 29 4 46 9 39 12 -19 7 -3 23 24 23 13 0
24 -2 24 -4z m-10 -124 c7 -5 -73 1 -83 6 -5 2 2 10 15 17 19 10 27 9 43 -4
11 -9 22 -17 25 -19z m-360 -26 c0 -11 -19 -15 -25 -6 -3 5 1 10 9 10 9 0 16
-2 16 -4z m93 -8 c29 -14 36 -28 12 -28 -8 0 -15 5 -15 10 0 6 -11 10 -25 10
-14 0 -25 5 -25 10 0 14 20 13 53 -2z m-130 -33 c-3 -8 -9 -15 -14 -15 -10 0
-12 24 -3 33 11 11 24 -3 17 -18z m224 19 c-3 -3 -12 -4 -19 -1 -8 3 -5 6 6 6
11 1 17 -2 13 -5z"/>
<path d="M3350 5361 c-30 -8 -51 -47 -44 -78 5 -17 2 -23 -10 -23 -22 0 -20
-19 2 -26 9 -3 43 -18 74 -34 31 -17 63 -30 72 -30 8 0 22 -10 30 -22 21 -30
20 -4 -1 30 -9 15 11 0 45 -33 34 -33 62 -65 62 -71 0 -6 10 -19 21 -30 12
-10 30 -32 39 -47 l17 -28 7 31 c3 20 0 42 -9 61 -17 32 -15 35 17 17 30 -17
44 -34 73 -90 14 -27 29 -48 33 -48 5 0 15 -11 22 -25 7 -14 17 -25 22 -25 5
0 4 9 -2 21 -18 32 -1 37 23 7 62 -76 77 -103 77 -135 0 -39 -12 -42 -34 -8
-24 37 -44 22 -40 -30 2 -24 -1 -47 -6 -50 -6 -3 -10 3 -10 14 0 11 -4 22 -9
25 -4 3 -21 30 -36 61 -16 30 -32 55 -36 55 -10 0 -1 -29 15 -50 11 -14 36
-64 43 -85 2 -5 -2 -2 -9 9 -7 10 -26 35 -43 56 -16 21 -37 47 -45 59 -20 29
-33 26 -25 -6 l7 -28 -25 23 c-14 13 -27 32 -30 43 -4 15 -2 17 13 9 29 -16
35 -12 15 10 -10 11 -23 19 -29 18 -6 -1 -40 26 -75 60 -36 34 -67 60 -69 57
-3 -3 5 -16 17 -29 12 -13 25 -41 28 -62 4 -21 15 -48 25 -59 11 -11 24 -28
29 -37 8 -15 5 -18 -21 -18 -33 0 -110 65 -110 93 0 9 -4 18 -8 21 -5 3 -9 -7
-9 -22 0 -15 -2 -34 -4 -42 -2 -8 3 -15 11 -16 32 -3 35 -5 20 -14 -12 -7 -12
-12 -2 -22 6 -6 12 -21 12 -32 -1 -19 -1 -19 -11 -3 -5 9 -19 17 -30 17 -11 0
-17 5 -14 10 7 12 -12 40 -27 40 -6 0 -8 -7 -5 -15 11 -27 -11 -25 -22 3 -16
36 -95 97 -99 77 -4 -19 -11 -19 -33 1 -20 18 -41 11 -32 -11 3 -8 0 -15 -6
-15 -6 0 -8 -7 -5 -15 9 -22 -35 -19 -60 4 -23 20 -93 40 -82 23 3 -5 -1 -13
-10 -16 -8 -3 -12 -12 -9 -18 4 -7 -2 -3 -13 10 -20 22 -42 29 -42 14 0 -4 5
-13 12 -20 17 -17 0 -28 -22 -14 -22 14 -27 3 -7 -17 10 -11 8 -12 -10 -6 -15
4 -23 2 -23 -5 0 -7 -8 -5 -22 4 -16 11 -25 13 -35 5 -7 -6 -19 -9 -27 -6 -8
3 -17 1 -19 -6 -3 -9 -8 -9 -18 -1 -8 6 -23 14 -34 17 -14 5 -11 0 10 -18 17
-14 37 -22 46 -20 9 3 24 -1 32 -10 20 -19 31 -19 23 0 -5 13 -2 14 22 1 63
-32 181 -70 250 -80 33 -5 42 -3 42 8 0 18 93 17 112 -2 7 -7 20 -12 31 -12
15 0 13 5 -12 26 -37 31 -45 65 -9 40 12 -9 31 -16 41 -16 10 0 32 -10 49 -21
25 -18 32 -19 39 -8 7 12 9 12 9 -1 0 -14 106 -90 125 -90 5 0 22 -12 38 -27
21 -20 28 -23 24 -10 -4 9 -3 17 2 17 10 0 61 -39 79 -60 10 -13 11 -13 6 3
-8 21 12 23 20 1 3 -8 11 -12 17 -8 7 4 7 -1 -1 -16 -9 -18 -9 -25 5 -40 9
-10 15 -29 13 -42 l-3 -23 -27 26 c-24 24 -27 25 -31 8 -3 -13 -11 -17 -21
-13 -13 5 -16 -1 -16 -26 0 -17 -4 -29 -9 -25 -6 3 -5 -9 1 -27 5 -18 12 -45
15 -59 6 -30 31 -48 78 -54 26 -3 35 0 35 11 0 12 4 12 24 -3 13 -10 22 -21
19 -25 -2 -5 0 -8 6 -8 5 0 11 8 14 18 3 15 5 15 12 -3 23 -61 30 -73 39 -68
5 4 7 -1 3 -11 -4 -10 -2 -27 4 -38 8 -16 8 -22 -2 -29 -11 -7 -10 -11 5 -22
21 -16 14 -57 -10 -57 -17 0 -18 -22 -2 -38 8 -8 9 -12 1 -12 -6 0 -9 -9 -6
-20 3 -11 1 -26 -5 -33 -14 -17 1 -105 22 -120 19 -14 32 -67 16 -67 -5 0 -10
6 -11 13 0 6 -4 2 -9 -10 -10 -23 -3 -63 11 -63 13 0 11 -44 -2 -57 -8 -8 -7
-19 4 -42 8 -17 13 -40 10 -51 -3 -11 -2 -28 2 -37 4 -10 8 -45 9 -78 1 -51 4
-60 19 -59 9 1 17 -2 17 -7 0 -5 7 -9 16 -9 11 0 15 -6 11 -20 -6 -22 8 -36
19 -19 4 8 9 7 15 -2 6 -10 9 -8 9 9 0 13 4 21 9 17 12 -7 60 55 54 71 -2 6 0
15 6 19 6 3 11 13 11 21 0 25 38 101 54 107 11 4 15 -8 19 -56 8 -89 24 -163
41 -199 23 -45 21 -111 -5 -139 l-21 -24 6 24 c9 40 -5 111 -21 111 -11 0 -13
-7 -8 -29 4 -20 -4 -57 -25 -117 -64 -181 -81 -247 -75 -289 3 -22 5 -77 5
-121 -1 -49 3 -85 9 -89 11 -6 51 72 51 100 0 22 29 45 56 45 26 0 76 31 106
65 22 25 23 84 2 114 -26 36 -26 101 -1 129 24 26 49 28 72 5 13 -12 15 -26
10 -60 -3 -23 -3 -64 1 -89 l6 -45 44 43 c24 24 44 48 44 55 0 7 6 16 13 20
38 23 80 145 93 265 3 29 7 55 9 58 5 7 -22 151 -33 180 -9 24 -32 40 -75 54
-9 3 -38 -4 -63 -16 -46 -23 -83 -70 -120 -155 -13 -29 -18 -34 -21 -19 -7 26
51 132 92 167 19 17 35 37 35 45 0 8 7 17 15 20 8 4 15 12 15 19 0 25 41 28
70 6 54 -39 54 -39 56 134 2 88 5 239 7 335 3 100 1 180 -4 186 -6 7 -12 49
-15 95 -4 69 -8 87 -25 101 -21 18 -18 38 7 38 17 0 18 14 4 40 -15 27 -55 70
-67 70 -9 0 -16 12 -58 98 -11 23 -28 43 -40 46 -11 3 -49 44 -85 91 -35 47
-68 88 -72 91 -5 3 -18 -2 -28 -11 -18 -17 -21 -17 -46 0 -23 15 -25 19 -11
26 14 8 13 14 -9 53 -32 58 -58 80 -87 74 -16 -3 -28 1 -36 14 -6 10 -18 18
-27 18 -9 0 -27 9 -41 20 -14 11 -32 20 -39 20 -7 0 -36 13 -64 30 -28 16 -58
29 -68 28 -58 -5 -90 3 -95 22 -3 11 -1 20 4 20 21 0 7 28 -18 38 -50 19 -104
24 -101 10 2 -7 -7 -14 -19 -16 -16 -2 -23 2 -23 12 0 9 -7 16 -15 16 -8 0
-15 -5 -15 -11 0 -6 -7 -4 -15 5 -8 8 -40 20 -71 26 -40 8 -53 15 -43 21 12 7
12 9 -1 8 -8 -1 -26 -4 -40 -8z m327 -97 c-3 -3 -12 -4 -19 -1 -8 3 -5 6 6 6
11 1 17 -2 13 -5z m36 -51 c22 -13 0 -20 -50 -16 -56 4 -87 13 -45 13 11 0 24
5 27 10 5 9 47 5 68 -7z m227 -159 c0 -8 -4 -12 -10 -9 -5 3 -10 10 -10 16 0
5 5 9 10 9 6 0 10 -7 10 -16z m69 -76 c7 -12 17 -34 22 -50 11 -38 -18 -39
-31 0 -6 15 -15 35 -20 44 -24 41 4 47 29 6z m-159 2 c0 -5 -4 -10 -9 -10 -6
0 -13 5 -16 10 -3 6 1 10 9 10 9 0 16 -4 16 -10z m78 -41 c-3 -8 -7 -3 -11 10
-4 17 -3 21 5 13 5 -5 8 -16 6 -23z m342 -95 c0 -8 -4 -14 -10 -14 -5 0 -10 2
-10 4 0 2 -3 12 -6 20 -5 12 -2 15 10 10 9 -3 16 -12 16 -20z m-296 -77 c14
-21 26 -40 26 -43 0 -3 9 -14 19 -25 22 -24 37 -105 22 -122 -6 -8 -6 -18 -1
-27 13 -20 12 -30 0 -30 -6 0 -13 8 -17 18 -3 9 -14 35 -24 57 -10 22 -21 52
-24 68 -4 15 -11 27 -16 27 -5 0 -16 11 -25 25 -13 20 -14 28 -4 40 7 8 10 21
7 29 -3 8 -3 17 0 20 8 7 6 9 37 -37z m124 -62 c35 -18 76 -90 85 -150 l6 -40
-21 25 c-11 14 -36 57 -55 95 -20 39 -41 73 -47 77 -19 13 0 9 32 -7z m-126
-82 c6 -16 10 -45 10 -66 -1 -21 3 -49 8 -61 4 -12 5 -29 0 -36 -5 -8 -11 14
-15 56 -4 38 -14 81 -21 96 -17 32 -17 38 -4 38 6 0 16 -12 22 -27z m-82 -35
c0 -19 -2 -20 -10 -8 -13 19 -13 30 0 30 6 0 10 -10 10 -22z m457 -30 c-3 -7
-5 -2 -5 12 0 14 2 19 5 13 2 -7 2 -19 0 -25z m-507 -87 c0 -10 5 -22 11 -28
6 -6 8 -16 4 -23 -10 -17 -35 7 -35 35 0 12 -9 34 -20 47 -10 14 -17 28 -14
31 9 9 54 -44 54 -62z m187 -23 c-3 -8 -6 -5 -6 6 -1 11 2 17 5 13 3 -3 4 -12
1 -19z m-137 -73 c0 -8 -4 -15 -10 -15 -5 0 -10 7 -10 15 0 8 5 15 10 15 6 0
10 -7 10 -15z m-92 -70 c-3 -3 -9 2 -12 12 -6 14 -5 15 5 6 7 -7 10 -15 7 -18z
m202 -37 c0 -5 -7 -3 -15 6 -8 8 -15 18 -15 22 0 3 7 1 15 -6 8 -7 15 -17 15
-22z m-26 -60 c17 -58 8 -82 -19 -54 -13 12 -15 26 -10 52 5 28 3 34 -7 28
-10 -6 -10 -4 1 9 7 9 15 17 16 17 2 0 10 -24 19 -52z m176 15 c0 -22 -2 -25
-10 -13 -13 20 -13 40 0 40 6 0 10 -12 10 -27z m-118 -45 c-9 -9 -12 -7 -12
12 0 19 3 21 12 12 9 -9 9 -15 0 -24z m378 -410 c0 -17 -20 -47 -20 -31 0 6
-3 18 -6 27 -4 11 -1 16 10 16 9 0 16 -6 16 -12z m102 -344 c57 -203 51 -374
-12 -383 -24 -3 -24 -2 -8 16 43 47 49 183 13 261 -27 58 -35 147 -13 140 7
-3 16 -18 20 -34z"/>
<path d="M4004 4639 c-3 -6 -1 -16 5 -22 8 -8 11 -5 11 11 0 24 -5 28 -16 11z"/>
<path d="M2955 5350 c3 -5 13 -10 21 -10 8 0 14 5 14 10 0 6 -9 10 -21 10 -11
0 -17 -4 -14 -10z"/>
<path d="M3180 5350 c-12 -8 -9 -10 13 -10 16 0 26 4 22 10 -8 12 -16 12 -35
0z"/>
<path d="M3734 5245 c26 -19 42 -19 26 0 -7 8 -20 15 -29 15 -13 -1 -13 -3 3
-15z"/>
<path d="M3270 5223 c0 -12 22 -43 30 -43 19 0 10 38 -10 43 -11 3 -20 3 -20
0z"/>
<path d="M2346 5174 c-9 -23 -8 -24 24 -12 41 14 47 28 12 28 -18 0 -32 -6
-36 -16z"/>
<path d="M3430 5142 c0 -17 66 -85 79 -81 7 3 -7 22 -33 47 -25 24 -46 39 -46
34z"/>
<path d="M2328 5123 c7 -3 16 -2 19 1 4 3 -2 6 -13 5 -11 0 -14 -3 -6 -6z"/>
<path d="M3572 5001 c13 -22 28 -28 28 -11 0 5 -9 14 -20 20 -19 10 -20 10 -8
-9z"/>
<path d="M2886 4902 c-2 -4 4 -9 15 -9 11 -1 17 2 14 8 -7 11 -22 12 -29 1z"/>
<path d="M3820 4863 c1 -5 8 -19 16 -33 8 -14 13 -17 10 -7 -3 10 -6 25 -6 33
0 8 -4 14 -10 14 -5 0 -10 -3 -10 -7z"/>
<path d="M2215 4810 c-9 -14 -9 -14 40 -28 25 -7 43 -8 49 -2 6 6 16 2 26 -10
14 -16 24 -18 59 -12 52 9 58 24 13 33 -19 4 -39 12 -45 18 -14 14 -40 14 -31
0 7 -12 -57 -8 -87 5 -10 4 -20 2 -24 -4z"/>
<path d="M2744 4791 c9 -14 72 -41 97 -41 47 0 -3 33 -70 46 -25 5 -32 4 -27
-5z"/>
<path d="M2636 4625 c25 -19 40 -19 24 0 -7 8 -20 15 -28 15 -13 0 -12 -3 4
-15z"/>
<path d="M3845 4220 c-3 -5 3 -10 14 -10 12 0 21 5 21 10 0 6 -6 10 -14 10 -8
0 -18 -4 -21 -10z"/>
<path d="M3163 4067 c-3 -4 -12 -6 -20 -3 -9 4 -22 1 -29 -5 -9 -8 -18 -8 -26
-2 -8 6 -39 7 -73 4 -33 -4 -77 -4 -98 0 -30 5 -37 3 -33 -7 4 -11 -7 -14 -44
-14 -27 0 -52 -5 -55 -11 -4 -5 -19 -7 -34 -4 -22 5 -34 -1 -68 -35 -23 -22
-49 -40 -57 -40 -9 0 -16 -4 -16 -10 0 -5 5 -10 10 -10 6 0 10 -19 10 -42 0
-24 0 -56 0 -73 1 -33 -59 -157 -72 -149 -4 3 -8 2 -9 -3 0 -4 -2 -19 -3 -33
-2 -14 1 -33 5 -42 5 -10 14 -27 19 -38 6 -11 10 -26 10 -34 0 -22 33 -30 46
-11 9 12 13 13 17 3 9 -21 25 9 20 36 -3 16 3 26 21 36 24 12 28 11 51 -10 14
-13 28 -21 31 -17 9 9 -5 27 -22 27 -23 0 -16 40 9 49 12 5 23 5 25 0 10 -25
102 15 102 45 0 7 6 21 14 32 14 18 15 18 25 -10 9 -23 15 -27 34 -21 12 4 48
9 80 11 32 2 67 9 79 15 13 7 23 8 27 1 3 -5 16 -12 29 -16 12 -4 20 -12 17
-17 -3 -5 0 -6 8 -3 15 5 42 -20 34 -33 -3 -4 17 -8 44 -9 47 0 54 4 50 34 -1
6 3 12 9 12 19 0 10 16 -31 61 -22 24 -41 49 -42 54 -4 20 -44 41 -142 71 -90
29 -97 33 -70 39 17 4 61 16 100 26 83 23 102 23 137 5 23 -12 29 -12 39 0 6
8 18 14 27 14 8 0 12 -3 9 -7 -4 -3 0 -15 10 -25 9 -10 11 -18 5 -18 -6 0 -12
6 -15 13 -2 6 -8 8 -13 4 -26 -25 96 -37 129 -13 21 16 22 26 1 26 -8 0 -12 5
-9 11 4 6 0 9 -10 7 -26 -5 -29 19 -4 25 19 5 20 9 10 21 -7 8 -9 21 -5 27 5
9 2 10 -9 6 -9 -3 -19 -2 -23 4 -8 13 -55 33 -72 30 -8 -1 -19 2 -25 8 -16 13
-156 20 -164 8z m-37 -42 c30 -16 25 -19 -13 -9 -13 4 -23 10 -23 15 0 12 3
11 36 -6z m-36 -180 c47 -8 90 -26 127 -55 19 -15 20 -19 8 -24 -8 -3 -25 -1
-38 4 -66 27 -225 42 -260 26 -14 -7 -13 -3 5 15 27 27 75 48 98 44 8 -2 35
-7 60 -10z m-75 -99 c16 -16 10 -26 -17 -26 -11 0 -18 7 -18 20 0 23 15 26 35
6z"/>
<path d="M2066 3901 c-3 -5 -22 -9 -41 -9 -37 0 -93 -40 -130 -93 -10 -14 -25
-26 -34 -25 -11 1 -17 -9 -19 -28 -3 -27 -2 -28 25 -22 15 3 69 9 118 12 50 4
103 13 118 21 15 8 32 11 38 7 6 -3 30 -3 55 1 42 6 44 8 38 33 -12 53 -15 59
-42 79 -30 22 -117 39 -126 24z"/>
<path d="M2600 3890 c0 -5 5 -10 11 -10 5 0 7 5 4 10 -3 6 -8 10 -11 10 -2 0
-4 -4 -4 -10z"/>
<path d="M3440 3850 c0 -5 5 -10 11 -10 5 0 7 5 4 10 -3 6 -8 10 -11 10 -2 0
-4 -4 -4 -10z"/>
<path d="M3390 3796 c0 -9 7 -16 16 -16 9 0 14 5 12 12 -6 18 -28 21 -28 4z"/>
<path d="M3910 3786 c0 -9 5 -16 10 -16 6 0 10 4 10 9 0 6 -4 13 -10 16 -5 3
-10 -1 -10 -9z"/>
<path d="M2113 3707 c-18 -7 -38 -18 -45 -26 -11 -12 -10 -12 2 -5 26 15 136
3 195 -22 20 -8 40 -12 46 -9 13 9 -51 51 -87 58 -16 3 -40 7 -54 10 -14 3
-39 0 -57 -6z"/>
<path d="M2003 3664 c-29 -12 -64 -76 -68 -124 l-5 -50 43 0 c23 0 53 7 65 16
12 8 26 12 32 9 5 -3 22 1 38 9 16 8 39 12 50 9 18 -4 25 1 37 31 17 39 31 44
61 21 24 -18 44 -19 44 -1 0 17 -95 56 -148 62 -22 2 -44 4 -49 5 -13 3 -67
-13 -80 -24 -7 -5 -13 -6 -13 -1 0 4 -7 -1 -15 -12 -8 -10 -15 -15 -15 -10 0
6 12 23 27 38 25 26 24 33 -4 22z m142 -76 c5 4 5 2 1 -5 -8 -15 -46 -13 -46
2 0 21 14 26 26 11 6 -9 15 -12 19 -8z"/>
<path d="M2560 3400 c0 -5 -7 -10 -15 -10 -8 0 -15 -6 -16 -12 0 -7 -2 -26 -4
-42 -2 -15 3 -45 11 -66 14 -34 14 -41 -1 -69 -9 -17 -11 -31 -5 -31 5 0 10 7
10 15 0 8 5 15 10 15 6 0 10 6 10 13 0 15 77 23 111 12 40 -13 62 -107 31
-137 -11 -11 -17 -8 -35 12 -22 25 -23 25 -42 8 -22 -22 -61 -23 -106 -3 -19
8 -30 14 -25 15 6 0 3 6 -6 13 -9 6 -18 21 -20 31 -4 26 -54 39 -93 24 -37
-14 -75 -47 -75 -65 0 -7 -4 -13 -10 -13 -5 0 -10 -9 -10 -20 0 -11 5 -20 12
-20 6 0 8 -3 4 -7 -10 -10 83 -93 124 -111 46 -20 142 -41 209 -47 40 -3 63 1
92 16 21 10 45 19 53 19 8 0 27 12 41 28 23 24 25 33 20 72 -7 45 -65 161
-117 234 -16 22 -47 52 -69 67 -22 14 -47 36 -55 48 -16 22 -34 28 -34 11z"/>
<path d="M2190 3059 c-17 -31 -4 -67 33 -89 17 -11 35 -20 38 -20 10 0 40 71
33 81 -5 9 -78 49 -88 49 -3 0 -10 -9 -16 -21z"/>
<path d="M2710 2800 c-9 -6 -10 -10 -3 -10 6 0 15 5 18 10 8 12 4 12 -15 0z"/>
<path d="M2912 2760 c11 -17 10 -22 -2 -30 -13 -8 -12 -10 3 -10 9 0 17 -5 17
-12 0 -9 3 -9 11 -1 12 12 -14 73 -31 73 -6 0 -5 -9 2 -20z"/>
<path d="M4309 2764 c-21 -14 -28 -31 -43 -103 -10 -47 -20 -97 -23 -111 -4
-22 -2 -20 18 10 13 19 23 38 24 42 0 4 8 17 18 28 9 11 17 27 17 35 0 8 9 29
20 47 36 60 22 84 -31 52z"/>
<path d="M2881 2734 c0 -11 3 -14 6 -6 3 7 2 16 -1 19 -3 4 -6 -2 -5 -13z"/>
<path d="M3022 2728 c3 -7 13 -15 24 -17 16 -3 17 -1 5 13 -16 19 -34 21 -29
4z"/>
<path d="M3082 2697 c4 -18 1 -24 -9 -20 -7 3 -13 -1 -13 -10 0 -15 89 -59
102 -51 27 17 -15 86 -61 99 -21 6 -23 5 -19 -18z"/>
<path d="M2635 2670 c-3 -5 -15 -10 -26 -10 -10 0 -27 -4 -37 -9 -46 -25 -102
-35 -102 -18 0 8 -3 8 -11 0 -9 -9 -17 -8 -34 3 -26 17 -51 10 -58 -17 -3 -11
-14 -19 -26 -19 -12 0 -39 -12 -61 -26 -24 -16 -46 -23 -58 -20 -16 5 -21 1
-25 -24 -5 -21 -12 -30 -26 -30 -27 0 -36 -19 -19 -37 26 -26 79 -8 112 39 33
46 78 69 135 66 22 -1 46 4 53 9 7 6 29 12 48 14 42 3 152 -20 146 -30 -3 -4
8 -5 25 -3 17 3 37 -2 47 -10 18 -15 31 -16 132 -4 101 12 149 25 171 45 20
18 20 18 -13 34 -18 8 -62 18 -98 21 -203 15 -241 20 -246 27 -7 12 -21 11
-29 -1z"/>
<path d="M2905 2670 c3 -5 11 -10 16 -10 6 0 7 5 4 10 -3 6 -11 10 -16 10 -6
0 -7 -4 -4 -10z"/>
<path d="M3026 2664 c-7 -17 9 -44 26 -44 10 0 1 39 -12 53 -4 5 -10 1 -14 -9z"/>
<path d="M4222 2420 c0 -14 2 -19 5 -12 2 6 2 18 0 25 -3 6 -5 1 -5 -13z"/>
<path d="M2470 2397 c-39 -10 -41 -12 -18 -15 15 -2 40 4 55 12 32 18 25 18
-37 3z"/>
<path d="M4210 2336 c0 -16 6 -26 14 -26 9 0 12 7 9 20 -8 31 -23 34 -23 6z"/>
<path d="M4218 2273 c7 -3 16 -2 19 1 4 3 -2 6 -13 5 -11 0 -14 -3 -6 -6z"/>
<path d="M2475 2240 c3 -5 8 -10 11 -10 2 0 4 5 4 10 0 6 -5 10 -11 10 -5 0
-7 -4 -4 -10z"/>
<path d="M4006 2206 c3 -8 1 -22 -4 -32 -12 -22 -4 -54 14 -54 17 0 18 -16 3
-26 -6 -3 -15 0 -20 7 -10 17 -10 16 -13 -38 -1 -28 2 -43 10 -43 18 0 35 26
28 44 -3 9 -1 16 5 16 18 0 12 39 -8 57 -16 14 -18 18 -6 27 7 6 16 21 20 34
5 18 2 22 -14 22 -14 0 -19 -5 -15 -14z"/>
<path d="M4220 2140 c0 -5 5 -10 10 -10 6 0 10 5 10 10 0 6 -4 10 -10 10 -5 0
-10 -4 -10 -10z"/>
<path d="M3577 2123 c-12 -12 -7 -22 8 -17 8 4 15 10 15 15 0 11 -14 12 -23 2z"/>
<path d="M3290 2105 c0 -8 5 -15 10 -15 6 0 10 7 10 15 0 8 -4 15 -10 15 -5 0
-10 -7 -10 -15z"/>
<path d="M3186 2076 c-15 -21 -22 -24 -40 -15 -19 9 -19 8 3 -10 20 -18 21
-22 6 -27 -9 -4 -21 -2 -28 5 -17 17 -32 13 -46 -13 -18 -32 -58 -29 -95 9
-33 33 -51 18 -20 -17 17 -19 17 -21 2 -15 -10 3 -20 2 -24 -4 -3 -5 -14 -7
-25 -4 -13 4 -21 1 -25 -10 -6 -14 -12 -11 -39 15 -33 32 -60 34 -48 5 3 -10
-1 -15 -12 -15 -9 0 -15 -5 -13 -11 2 -6 6 -9 10 -7 11 5 48 -49 48 -70 0 -26
-19 -39 -31 -21 -6 10 -9 10 -9 2 0 -7 -7 -10 -15 -7 -8 4 -15 15 -15 25 0 25
-4 24 -35 -5 -24 -22 -26 -31 -24 -82 3 -57 -13 -86 -24 -44 -7 27 -25 25 -38
-4 -7 -14 -17 -22 -25 -19 -8 3 -14 0 -14 -7 0 -9 -4 -9 -16 1 -14 11 -18 11
-29 -4 -19 -26 -7 -55 26 -62 16 -4 29 -13 29 -21 0 -8 6 -14 13 -14 9 0 12
10 9 31 -4 24 -1 30 9 27 8 -3 14 -15 13 -27 0 -14 5 -20 15 -19 12 2 15 -4
13 -22 l-3 -25 21 21 c19 18 26 20 61 10 41 -11 127 4 140 25 3 5 12 7 20 4 8
-3 30 9 49 25 25 23 43 30 63 27 15 -2 30 0 33 5 3 5 10 6 15 3 5 -4 9 4 9 17
0 17 3 19 9 9 6 -9 10 -10 16 -2 3 7 15 9 26 6 11 -4 19 -2 19 4 0 6 -4 11
-10 11 -5 0 -10 5 -10 11 0 9 16 7 56 -8 6 -2 14 6 17 17 3 12 10 19 16 15 16
-9 14 3 -5 35 -16 26 -16 29 4 50 11 12 25 19 31 15 15 -9 14 28 -1 45 -11 12
-10 12 5 1 15 -12 17 -11 17 8 0 12 5 32 11 43 9 16 7 24 -5 36 -13 13 -16 13
-16 2 0 -7 -2 -11 -5 -8 -3 3 -1 17 4 31 12 30 9 33 -39 42 -30 5 -38 2 -54
-19z m-169 -138 c-3 -8 -6 -5 -6 6 -1 11 2 17 5 13 3 -3 4 -12 1 -19z"/>
<path d="M3336 2029 c12 -13 20 -16 22 -9 3 7 -2 16 -9 21 -25 16 -32 9 -13
-12z"/>
<path d="M2750 2025 c0 -15 18 -40 24 -34 3 3 -1 14 -9 25 -8 10 -14 15 -15 9z"/>
<path d="M2905 2010 c-4 -6 3 -10 14 -10 25 0 27 6 6 13 -8 4 -17 2 -20 -3z"/>
<path d="M3897 2014 c-3 -3 1 -14 10 -22 10 -11 12 -17 4 -20 -6 -2 -11 -9
-11 -17 0 -7 -7 -18 -15 -25 -9 -7 -13 -20 -10 -27 5 -15 -9 -49 -32 -71 -7
-7 -13 -24 -13 -38 0 -18 -6 -24 -22 -25 -20 0 -21 -1 -5 -8 17 -6 17 -8 -2
-25 -12 -11 -21 -30 -21 -43 0 -14 -7 -31 -15 -39 -8 -9 -15 -29 -15 -47 0
-29 1 -30 14 -11 26 35 27 8 1 -39 -13 -26 -21 -47 -16 -47 11 0 9 -93 -2
-101 -5 -4 -3 -17 5 -29 9 -15 9 -24 2 -27 -6 -2 -8 -18 -6 -36 4 -27 6 -29
13 -12 7 19 8 19 8 -2 1 -15 -5 -23 -15 -23 -8 0 -13 -4 -10 -8 7 -12 -19 -83
-34 -92 -7 -4 -9 -13 -5 -19 9 -16 -13 -41 -36 -41 -11 0 -19 -4 -19 -10 0 -5
7 -10 15 -10 20 0 19 -6 -10 -44 -30 -39 -33 -56 -5 -31 18 16 50 15 50 -2 0
-4 -14 -17 -30 -28 -17 -11 -33 -28 -36 -37 -3 -10 -17 -21 -30 -24 -18 -5
-22 -10 -15 -17 8 -8 18 -4 35 12 15 14 26 19 30 12 10 -15 -21 -58 -47 -65
-34 -9 -50 20 -43 77 4 35 2 47 -8 47 -17 0 -27 72 -12 83 8 5 6 11 -5 20 -15
11 -15 16 -2 41 11 20 12 31 4 39 -8 8 -6 16 6 29 15 17 15 18 -3 17 -68 -7
-100 17 -69 51 22 24 18 40 -10 40 -14 0 -25 -5 -25 -11 0 -5 -4 -7 -10 -4 -6
4 -2 14 9 26 13 14 19 36 20 77 0 31 3 69 7 85 4 19 2 27 -8 27 -11 0 -13 9
-10 31 3 22 1 30 -7 25 -11 -7 -15 4 -11 37 1 15 -3 17 -18 13 -11 -4 -67 -7
-125 -7 -78 -1 -110 -5 -124 -15 -13 -11 -15 -17 -5 -20 20 -9 3 -24 -26 -24
-36 0 -54 -13 -46 -33 9 -24 -18 -22 -36 2 -13 19 -14 19 -39 1 -15 -10 -37
-20 -51 -21 -23 -4 -25 -8 -24 -53 0 -29 6 -52 12 -54 7 -2 12 -12 12 -23 0
-10 6 -19 13 -19 6 0 31 -18 55 -39 24 -22 49 -38 57 -35 8 3 12 -1 12 -12 -1
-11 9 -21 28 -27 17 -5 32 -13 35 -18 3 -4 21 -9 40 -11 23 -2 34 -8 32 -17
-1 -7 4 -18 12 -25 8 -6 16 -22 18 -36 2 -17 9 -25 23 -25 11 0 20 -7 20 -15
0 -26 45 -75 73 -80 18 -4 26 -11 24 -22 -1 -9 6 -18 18 -21 13 -3 18 -10 14
-21 -4 -10 -1 -16 8 -16 14 0 42 -55 39 -77 -1 -7 7 -13 19 -13 24 0 25 -8 3
-32 -15 -17 -15 -18 2 -18 12 0 15 -5 10 -17 -4 -10 -8 -25 -9 -33 -2 -8 -8
-15 -14 -15 -6 0 -17 -6 -24 -14 -11 -11 -7 -13 25 -8 44 7 41 -4 -8 -27 -41
-20 -71 -62 -36 -51 26 8 61 -11 61 -33 0 -9 15 -27 33 -39 22 -16 26 -23 14
-23 -9 0 -17 -4 -17 -10 0 -5 7 -10 16 -10 11 0 14 -6 9 -20 -4 -13 -2 -20 6
-20 10 0 10 -3 1 -12 -19 -19 -14 -49 8 -55 19 -5 19 -7 4 -17 -14 -11 -14
-16 -3 -34 12 -19 16 -19 39 -8 24 13 90 36 102 36 3 0 9 -20 12 -44 4 -24 16
-54 27 -67 11 -13 17 -29 14 -37 -2 -7 1 -25 9 -40 7 -15 17 -51 21 -80 9 -64
29 -111 38 -87 4 8 15 15 25 15 33 0 72 45 72 82 0 20 7 40 18 48 25 22 87 50
110 50 12 0 24 5 27 10 10 16 56 -1 93 -34 30 -27 32 -32 17 -43 -20 -14 -12
-33 14 -33 10 0 24 -7 31 -15 17 -20 30 -19 30 4 0 24 23 43 47 39 10 -1 24 1
31 6 8 4 23 1 39 -9 18 -12 28 -14 33 -6 4 7 23 11 42 9 45 -3 77 23 149 119
94 127 148 280 150 431 2 115 -12 139 -107 182 -53 24 -85 43 -203 122 -35 24
-38 23 -39 -9 0 -30 23 -63 44 -63 9 0 12 -10 10 -27 -2 -16 -1 -20 1 -10 4
18 6 18 24 1 26 -24 26 -58 -1 -51 -11 3 -20 1 -20 -4 0 -5 5 -9 10 -9 14 0
13 -43 -2 -58 -9 -9 -8 -18 3 -39 8 -16 19 -32 25 -38 19 -18 31 -60 23 -80
-7 -18 -8 -18 -8 -1 -1 12 -6 16 -16 12 -13 -5 -14 -2 -4 15 10 19 8 20 -11
14 -30 -9 -72 20 -68 48 2 16 -4 23 -29 30 -18 6 -33 14 -33 18 0 5 -7 9 -15
9 -17 0 -20 -16 -5 -25 15 -9 2 -25 -15 -19 -19 8 -38 -29 -23 -44 7 -7 8 -15
4 -19 -4 -5 -14 0 -21 11 -9 12 -21 17 -35 13 -11 -3 -20 -1 -20 4 0 4 -7 6
-15 3 -8 -4 -15 -2 -15 4 0 5 7 12 15 16 9 3 12 12 8 22 -4 12 -3 15 5 10 8
-5 10 -2 6 8 -4 11 0 16 10 16 18 0 22 15 6 25 -5 3 -18 -3 -30 -15 -21 -21
-40 -26 -40 -11 0 6 5 13 10 16 6 3 10 14 10 25 0 13 -7 17 -26 16 -19 -1 -24
-5 -20 -18 2 -10 0 -20 -5 -23 -12 -8 1 -35 16 -35 8 0 13 -9 12 -19 -1 -19
-2 -19 -25 0 -32 25 -42 24 -39 -4 1 -14 -3 -21 -12 -19 -7 1 -24 -4 -37 -13
-22 -14 -25 -14 -43 4 -19 19 -19 20 2 34 28 19 20 27 -29 33 -33 3 -36 2 -23
-9 14 -11 14 -14 -1 -39 -19 -32 -33 -26 -23 10 3 15 1 27 -8 32 -10 7 -6 12
16 20 17 6 31 10 33 8 2 -2 8 5 13 15 15 26 1 42 -21 22 -15 -14 -18 -14 -23
-1 -3 8 1 20 9 26 18 16 18 30 -1 30 -8 0 -15 7 -15 16 0 11 -6 15 -20 11 -24
-6 -28 18 -5 27 8 3 15 14 15 24 0 10 3 22 8 26 4 4 7 22 7 39 0 24 4 32 18
31 9 -1 17 2 17 7 0 10 -13 12 -49 9 -15 -1 -22 3 -19 12 3 8 19 13 42 12 23
-1 35 3 33 10 -2 6 -14 10 -27 8 l-22 -2 23 19 c21 17 25 18 35 5 10 -12 12
-12 17 5 2 11 14 21 26 23 33 5 24 23 -9 20 -24 -3 -30 1 -30 17 0 11 9 22 20
26 24 8 43 -2 34 -17 -5 -8 -1 -9 10 -5 10 4 21 7 24 7 4 0 -6 11 -22 25 -16
14 -24 25 -18 25 6 0 10 17 9 40 -1 22 -4 40 -8 40 -3 0 -7 23 -8 52 -1 28 -7
58 -13 65 -8 10 -8 17 0 25 8 8 6 17 -5 35 -12 18 -13 29 -5 46 18 38 21 116
5 132 -13 13 -12 15 1 15 18 0 13 45 -9 92 -7 15 -12 51 -11 80 2 62 -19 117
-37 98 -9 -10 -9 -14 1 -17 13 -5 17 -33 5 -33 -12 0 -68 52 -79 73 -6 10 -13
15 -17 11z m58 -83 c17 -7 17 -8 -8 -13 -19 -4 -27 -1 -27 8 0 15 6 16 35 5z
m2 -68 c-9 -9 -20 -13 -24 -9 -4 4 1 14 11 22 25 18 35 8 13 -13z m608 -1043
c3 -11 13 -20 22 -20 10 0 13 -6 9 -16 -3 -9 -6 -21 -6 -26 0 -13 -12 -4 -12
9 0 4 -9 20 -19 35 -21 29 -23 38 -10 38 5 0 13 -9 16 -20z m-945 -4 c-1 -5 4
-13 12 -17 8 -6 -1 -9 -26 -9 -39 0 -39 0 -20 19 19 20 37 23 34 7z m730 -126
c0 -5 -7 -10 -15 -10 -8 0 -15 5 -15 10 0 6 7 10 15 10 8 0 15 -4 15 -10z
m-170 -12 c0 -7 -12 -21 -26 -31 -16 -12 -24 -14 -22 -5 2 7 -6 13 -17 14 -38
2 -45 4 -45 13 0 5 20 8 45 5 27 -2 45 0 45 6 0 5 5 10 10 10 6 0 10 -6 10
-12z m61 -69 c-11 -28 -12 -26 -16 20 -2 29 -1 31 11 19 11 -11 12 -21 5 -39z
m-184 35 c-3 -3 -12 -4 -19 -1 -8 3 -5 6 6 6 11 1 17 -2 13 -5z m135 -57 l37
-33 -34 0 c-18 0 -31 4 -29 8 3 4 -7 8 -21 8 -21 0 -26 4 -21 16 3 9 6 20 6
25 0 18 26 8 62 -24z"/>
<path d="M2740 1971 c0 -6 5 -13 10 -16 6 -3 10 1 10 9 0 9 -4 16 -10 16 -5 0
-10 -4 -10 -9z"/>
<path d="M2801 1914 c0 -11 3 -14 6 -6 3 7 2 16 -1 19 -3 4 -6 -2 -5 -13z"/>
<path d="M2190 1820 c0 -5 5 -10 11 -10 5 0 7 5 4 10 -3 6 -8 10 -11 10 -2 0
-4 -4 -4 -10z"/>
<path d="M2220 1770 c0 -26 15 -33 30 -15 14 17 8 28 -15 31 -9 1 -15 -6 -15
-16z"/>
<path d="M2256 1732 c-7 -11 63 -92 80 -92 8 0 26 -7 39 -16 23 -15 25 -15 31
0 9 23 24 20 24 -6 0 -17 3 -19 12 -10 16 16 55 15 61 0 4 -10 6 -10 6 0 1 6
9 12 20 12 15 0 18 7 16 42 -3 50 -32 80 -52 52 -13 -18 -33 -11 -33 12 0 8
-4 14 -10 14 -14 0 -13 -13 4 -35 7 -10 11 -27 8 -37 -5 -20 -17 -24 -27 -8
-4 6 -25 20 -47 31 -39 20 -43 20 -54 5 -12 -17 -31 -5 -20 13 3 5 0 14 -8 20
-11 9 -15 9 -19 -1 -4 -10 -6 -10 -6 0 -1 13 -17 16 -25 4z"/>
<path d="M4088 1138 c-17 -17 -17 -18 1 -18 10 0 21 7 24 15 9 22 -6 24 -25 3z"/>
<path d="M4090 1063 c0 -5 4 -14 9 -22 11 -17 32 -5 24 14 -5 15 -33 21 -33 8z"/>
<path d="M3965 940 c-3 -5 -1 -10 4 -10 6 0 11 5 11 10 0 6 -2 10 -4 10 -3 0
-8 -4 -11 -10z"/>
<path d="M4372 885 c-11 -13 -8 -15 18 -15 28 0 30 2 16 15 -18 18 -18 18 -34
0z"/>
<path d="M4465 800 c-3 -5 -1 -10 4 -10 6 0 11 5 11 10 0 6 -2 10 -4 10 -3 0
-8 -4 -11 -10z"/>
<path d="M4480 690 c0 -5 5 -10 10 -10 6 0 10 5 10 10 0 6 -4 10 -10 10 -5 0
-10 -4 -10 -10z"/>
<path d="M3470 590 c0 -5 5 -10 11 -10 5 0 7 5 4 10 -3 6 -8 10 -11 10 -2 0
-4 -4 -4 -10z"/>
<path d="M5140 120 c-8 -5 -25 -7 -37 -4 -33 9 -34 -26 -1 -54 19 -17 34 -21
53 -16 17 4 23 10 16 18 -5 6 -11 23 -13 38 -2 22 -6 25 -18 18z"/>
<path d="M4754 19 c-19 -22 -19 -22 4 -8 12 8 22 17 22 21 0 12 -6 9 -26 -13z"/>
</g>
</svg>
